<svg width="180" height="180" viewBox="0 0 180 180" fill="none" xmlns="http://www.w3.org/2000/svg">
  <rect width="180" height="180" rx="40" fill="#3b82f6"/>
  <path d="M90 45C75.8577 45 64.5 56.3577 64.5 70.5C64.5 84.6423 75.8577 96 90 96C104.142 96 115.5 84.6423 115.5 70.5C115.5 56.3577 104.142 45 90 45Z" fill="white"/>
  <path d="M45 105H135C138.314 105 141 107.686 141 111V129C141 132.314 138.314 135 135 135H45C41.6863 135 39 132.314 39 129V111C39 107.686 41.6863 105 45 105Z" fill="white"/>
</svg>
