<svg width="64" height="64" viewBox="0 0 64 64" fill="none" xmlns="http://www.w3.org/2000/svg">
  <!-- Rain day -->
  <circle cx="20" cy="20" r="10" fill="#FFD700"/>
  <path d="M20 5L20 10M20 30L20 35M35 20L30 20M10 20L5 20M30.7 9.3L27.1 12.9M12.9 27.1L9.3 30.7M30.7 30.7L27.1 27.1M12.9 12.9L9.3 9.3" stroke="#FFD700" stroke-width="1.5" stroke-linecap="round"/>
  <!-- Cloud -->
  <ellipse cx="40" cy="30" rx="18" ry="11" fill="#696969" stroke="#2F2F2F" stroke-width="1"/>
  <ellipse cx="47" cy="27" rx="14" ry="8" fill="#696969" stroke="#2F2F2F" stroke-width="1"/>
  <ellipse cx="35" cy="35" rx="15" ry="7" fill="#696969" stroke="#2F2F2F" stroke-width="1"/>
  <!-- Rain drops -->
  <line x1="28" y1="42" x2="26" y2="52" stroke="#4169E1" stroke-width="2" stroke-linecap="round"/>
  <line x1="36" y1="44" x2="34" y2="54" stroke="#4169E1" stroke-width="2" stroke-linecap="round"/>
  <line x1="44" y1="42" x2="42" y2="52" stroke="#4169E1" stroke-width="2" stroke-linecap="round"/>
  <line x1="52" y1="44" x2="50" y2="54" stroke="#4169E1" stroke-width="2" stroke-linecap="round"/>
</svg>
